<mxfile host="app.diagrams.net" modified="2022-05-08T21:10:06.429Z" agent="5.0 (Windows)" etag="1jzE5fkTxnwB-r7e1xf9" version="18.0.2" type="github">
  <diagram id="wawIsbfm05siuFcCVTbk" name="mapeamento-ordem-servico">
    <mxGraphModel dx="1422" dy="752" grid="1" gridSize="10" guides="1" tooltips="1" connect="1" arrows="1" fold="1" page="1" pageScale="1" pageWidth="827" pageHeight="1169" background="none" math="0" shadow="0">
      <root>
        <mxCell id="0" />
        <mxCell id="1" parent="0" />
        <mxCell id="rPp05jL8hm5lkfTIfTuw-12" value="" style="edgeStyle=orthogonalEdgeStyle;rounded=0;orthogonalLoop=1;jettySize=auto;html=1;" parent="1" source="rPp05jL8hm5lkfTIfTuw-1" target="rPp05jL8hm5lkfTIfTuw-5" edge="1">
          <mxGeometry relative="1" as="geometry" />
        </mxCell>
        <mxCell id="rPp05jL8hm5lkfTIfTuw-14" style="edgeStyle=orthogonalEdgeStyle;rounded=0;orthogonalLoop=1;jettySize=auto;html=1;exitX=0.25;exitY=0;exitDx=0;exitDy=0;entryX=1;entryY=0.5;entryDx=0;entryDy=0;" parent="1" source="rPp05jL8hm5lkfTIfTuw-1" target="rPp05jL8hm5lkfTIfTuw-10" edge="1">
          <mxGeometry relative="1" as="geometry">
            <Array as="points">
              <mxPoint x="394" y="320" />
              <mxPoint x="394" y="215" />
            </Array>
          </mxGeometry>
        </mxCell>
        <mxCell id="rPp05jL8hm5lkfTIfTuw-15" style="edgeStyle=orthogonalEdgeStyle;rounded=0;orthogonalLoop=1;jettySize=auto;html=1;exitX=0;exitY=0.25;exitDx=0;exitDy=0;entryX=1;entryY=0.5;entryDx=0;entryDy=0;" parent="1" source="rPp05jL8hm5lkfTIfTuw-1" target="rPp05jL8hm5lkfTIfTuw-11" edge="1">
          <mxGeometry relative="1" as="geometry">
            <Array as="points">
              <mxPoint x="340" y="335" />
              <mxPoint x="340" y="275" />
            </Array>
          </mxGeometry>
        </mxCell>
        <mxCell id="rPp05jL8hm5lkfTIfTuw-18" value="" style="edgeStyle=orthogonalEdgeStyle;rounded=0;orthogonalLoop=1;jettySize=auto;html=1;" parent="1" source="rPp05jL8hm5lkfTIfTuw-1" target="rPp05jL8hm5lkfTIfTuw-16" edge="1">
          <mxGeometry relative="1" as="geometry" />
        </mxCell>
        <mxCell id="rPp05jL8hm5lkfTIfTuw-20" style="edgeStyle=orthogonalEdgeStyle;rounded=0;orthogonalLoop=1;jettySize=auto;html=1;exitX=0;exitY=0.75;exitDx=0;exitDy=0;entryX=1;entryY=0.5;entryDx=0;entryDy=0;" parent="1" source="rPp05jL8hm5lkfTIfTuw-1" target="rPp05jL8hm5lkfTIfTuw-19" edge="1">
          <mxGeometry relative="1" as="geometry">
            <Array as="points">
              <mxPoint x="340" y="365" />
              <mxPoint x="340" y="415" />
            </Array>
          </mxGeometry>
        </mxCell>
        <mxCell id="rPp05jL8hm5lkfTIfTuw-22" style="edgeStyle=orthogonalEdgeStyle;rounded=0;orthogonalLoop=1;jettySize=auto;html=1;exitX=0.5;exitY=1;exitDx=0;exitDy=0;entryX=1;entryY=0.5;entryDx=0;entryDy=0;" parent="1" source="rPp05jL8hm5lkfTIfTuw-1" target="rPp05jL8hm5lkfTIfTuw-21" edge="1">
          <mxGeometry relative="1" as="geometry">
            <Array as="points">
              <mxPoint x="380" y="380" />
              <mxPoint x="380" y="475" />
            </Array>
          </mxGeometry>
        </mxCell>
        <mxCell id="rPp05jL8hm5lkfTIfTuw-24" style="edgeStyle=orthogonalEdgeStyle;rounded=0;orthogonalLoop=1;jettySize=auto;html=1;exitX=0.75;exitY=0;exitDx=0;exitDy=0;entryX=0;entryY=0.5;entryDx=0;entryDy=0;" parent="1" source="rPp05jL8hm5lkfTIfTuw-1" target="rPp05jL8hm5lkfTIfTuw-23" edge="1">
          <mxGeometry relative="1" as="geometry">
            <Array as="points">
              <mxPoint x="434" y="320" />
              <mxPoint x="434" y="215" />
            </Array>
          </mxGeometry>
        </mxCell>
        <mxCell id="rPp05jL8hm5lkfTIfTuw-28" value="" style="edgeStyle=orthogonalEdgeStyle;rounded=0;orthogonalLoop=1;jettySize=auto;html=1;" parent="1" source="rPp05jL8hm5lkfTIfTuw-1" target="rPp05jL8hm5lkfTIfTuw-27" edge="1">
          <mxGeometry relative="1" as="geometry" />
        </mxCell>
        <mxCell id="rPp05jL8hm5lkfTIfTuw-33" style="edgeStyle=orthogonalEdgeStyle;rounded=0;orthogonalLoop=1;jettySize=auto;html=1;exitX=1;exitY=0.75;exitDx=0;exitDy=0;entryX=0;entryY=0.5;entryDx=0;entryDy=0;" parent="1" source="rPp05jL8hm5lkfTIfTuw-1" target="rPp05jL8hm5lkfTIfTuw-30" edge="1">
          <mxGeometry relative="1" as="geometry">
            <Array as="points">
              <mxPoint x="474" y="360" />
              <mxPoint x="490" y="360" />
              <mxPoint x="490" y="415" />
            </Array>
          </mxGeometry>
        </mxCell>
        <mxCell id="rPp05jL8hm5lkfTIfTuw-34" style="edgeStyle=orthogonalEdgeStyle;rounded=0;orthogonalLoop=1;jettySize=auto;html=1;exitX=0.5;exitY=1;exitDx=0;exitDy=0;entryX=0;entryY=0.5;entryDx=0;entryDy=0;" parent="1" source="rPp05jL8hm5lkfTIfTuw-1" target="rPp05jL8hm5lkfTIfTuw-29" edge="1">
          <mxGeometry relative="1" as="geometry">
            <Array as="points">
              <mxPoint x="434" y="380" />
              <mxPoint x="434" y="465" />
            </Array>
          </mxGeometry>
        </mxCell>
        <mxCell id="rPp05jL8hm5lkfTIfTuw-36" value="" style="edgeStyle=orthogonalEdgeStyle;rounded=0;orthogonalLoop=1;jettySize=auto;html=1;" parent="1" source="rPp05jL8hm5lkfTIfTuw-1" target="rPp05jL8hm5lkfTIfTuw-32" edge="1">
          <mxGeometry relative="1" as="geometry" />
        </mxCell>
        <mxCell id="_3a3lUiurFjoX1Y7EwXr-3" style="edgeStyle=orthogonalEdgeStyle;rounded=0;orthogonalLoop=1;jettySize=auto;html=1;exitX=1;exitY=0.25;exitDx=0;exitDy=0;entryX=0;entryY=0.5;entryDx=0;entryDy=0;fontSize=19;" edge="1" parent="1" source="rPp05jL8hm5lkfTIfTuw-1" target="rPp05jL8hm5lkfTIfTuw-25">
          <mxGeometry relative="1" as="geometry">
            <Array as="points">
              <mxPoint x="494" y="335" />
              <mxPoint x="494" y="275" />
            </Array>
          </mxGeometry>
        </mxCell>
        <mxCell id="rPp05jL8hm5lkfTIfTuw-1" value="Ordem de Serviço" style="rounded=1;whiteSpace=wrap;html=1;gradientColor=none;gradientDirection=radial;shadow=0;glass=0;sketch=0;" parent="1" vertex="1">
          <mxGeometry x="354" y="320" width="120" height="60" as="geometry" />
        </mxCell>
        <mxCell id="rPp05jL8hm5lkfTIfTuw-5" value="Solicitação" style="ellipse;whiteSpace=wrap;html=1;fillColor=#f8cecc;strokeColor=#b85450;" parent="1" vertex="1">
          <mxGeometry x="359" y="140" width="110" height="50" as="geometry" />
        </mxCell>
        <mxCell id="rPp05jL8hm5lkfTIfTuw-10" value="Analisar" style="ellipse;whiteSpace=wrap;html=1;fillColor=#d80073;fontColor=#ffffff;strokeColor=#A50040;" parent="1" vertex="1">
          <mxGeometry x="249" y="190" width="110" height="50" as="geometry" />
        </mxCell>
        <mxCell id="rPp05jL8hm5lkfTIfTuw-11" value="Associar " style="ellipse;whiteSpace=wrap;html=1;fillColor=#6a00ff;fontColor=#ffffff;strokeColor=#3700CC;" parent="1" vertex="1">
          <mxGeometry x="214" y="250" width="110" height="50" as="geometry" />
        </mxCell>
        <mxCell id="rPp05jL8hm5lkfTIfTuw-16" value="Cancelar" style="ellipse;whiteSpace=wrap;html=1;fillColor=#1ba1e2;fontColor=#ffffff;strokeColor=#006EAF;" parent="1" vertex="1">
          <mxGeometry x="214" y="325" width="110" height="50" as="geometry" />
        </mxCell>
        <mxCell id="rPp05jL8hm5lkfTIfTuw-19" value="Anexar Arquivos" style="ellipse;whiteSpace=wrap;html=1;fillColor=#60a917;fontColor=#ffffff;strokeColor=#2D7600;" parent="1" vertex="1">
          <mxGeometry x="214" y="390" width="110" height="50" as="geometry" />
        </mxCell>
        <mxCell id="rPp05jL8hm5lkfTIfTuw-21" value="Baixar Arquivos" style="ellipse;whiteSpace=wrap;html=1;fillColor=#e1d5e7;strokeColor=#9673a6;" parent="1" vertex="1">
          <mxGeometry x="249" y="450" width="110" height="50" as="geometry" />
        </mxCell>
        <mxCell id="rPp05jL8hm5lkfTIfTuw-23" value="Incluir Roteiro" style="ellipse;whiteSpace=wrap;html=1;fillColor=#f5f5f5;fontColor=#333333;strokeColor=#666666;" parent="1" vertex="1">
          <mxGeometry x="464" y="190" width="110" height="50" as="geometry" />
        </mxCell>
        <mxCell id="rPp05jL8hm5lkfTIfTuw-25" value="Ciência " style="ellipse;whiteSpace=wrap;html=1;fillColor=#dae8fc;strokeColor=#6c8ebf;" parent="1" vertex="1">
          <mxGeometry x="504" y="250" width="110" height="50" as="geometry" />
        </mxCell>
        <mxCell id="rPp05jL8hm5lkfTIfTuw-27" value="Encerrar" style="ellipse;whiteSpace=wrap;html=1;fillColor=#d5e8d4;strokeColor=#82b366;" parent="1" vertex="1">
          <mxGeometry x="504" y="325" width="110" height="50" as="geometry" />
        </mxCell>
        <mxCell id="rPp05jL8hm5lkfTIfTuw-29" value="Memorial de Fiscalização" style="ellipse;whiteSpace=wrap;html=1;fillColor=#fff2cc;strokeColor=#d6b656;" parent="1" vertex="1">
          <mxGeometry x="464" y="440" width="110" height="50" as="geometry" />
        </mxCell>
        <mxCell id="rPp05jL8hm5lkfTIfTuw-30" value="Prorrogar" style="ellipse;whiteSpace=wrap;html=1;fillColor=#ffe6cc;strokeColor=#d79b00;" parent="1" vertex="1">
          <mxGeometry x="504" y="390" width="110" height="50" as="geometry" />
        </mxCell>
        <mxCell id="rPp05jL8hm5lkfTIfTuw-32" value="Repassar para SubGerente" style="ellipse;whiteSpace=wrap;html=1;fillColor=#a20025;strokeColor=#6F0000;fontColor=#ffffff;" parent="1" vertex="1">
          <mxGeometry x="359" y="490" width="110" height="50" as="geometry" />
        </mxCell>
        <mxCell id="rPp05jL8hm5lkfTIfTuw-37" value="Mapeamento da Ordem de Serviço" style="text;html=1;align=center;verticalAlign=middle;resizable=0;points=[];autosize=1;strokeColor=none;fillColor=none;fontStyle=1;fontSize=19;" parent="1" vertex="1">
          <mxGeometry x="249" y="40" width="330" height="30" as="geometry" />
        </mxCell>
      </root>
    </mxGraphModel>
  </diagram>
</mxfile>
